<?xml version="1.0" standalone="no"?>
<svg viewBox="0 0 200 200" xmlns="http://www.w3.org/2000/svg">
  <path fill="#FFFAD1" d="M40.8,-74.2C51.7,-64.4,58.5,-51,64.3,-38.1C70.1,-25.1,74.9,-12.6,77.9,1.7C81,16.1,82.2,32.1,76.5,45.2C70.7,58.3,58,68.4,44.1,72.5C30.2,76.6,15.1,74.7,2.1,71C-10.9,67.3,-21.7,61.9,-35.6,57.8C-49.4,53.6,-66.1,50.7,-72.1,41.3C-78,31.9,-73,16,-71.3,1C-69.6,-14,-71.2,-28,-65.2,-37.2C-59.1,-46.4,-45.5,-50.9,-33.4,-59.9C-21.3,-69,-10.6,-82.8,2.2,-86.5C15,-90.3,29.9,-84,40.8,-74.2Z" transform="translate(100 100)" />
</svg>
